<svg xmlns="http://www.w3.org/2000/svg" width="750" height="750" baseProfile="full" viewBox="0 0 750 750"><defs><linearGradient id="a" x1="-11.93%" x2="104.3%" y1="55.19%" y2="64.17%"><stop offset="0%" stop-color="#000100" stop-opacity=".3"/><stop offset="5%" stop-opacity=".04"/><stop offset="10%" stop-color="#000100" stop-opacity=".03"/><stop offset="89%" stop-opacity=".01"/><stop offset="100%" stop-color="#060607" stop-opacity=".05"/></linearGradient><linearGradient id="b" x1="19.12%" x2="82.85%" y1="-1.54%" y2="110.95%"><stop offset="0%" stop-color="#52d76a"/><stop offset="5%" stop-color="#58cc6b"/><stop offset="94%" stop-color="#56cc69"/><stop offset="100%" stop-color="#57e363"/></linearGradient><linearGradient id="c" x1="-799.3%" x2="975.7%" y1="23.36%" y2="74.44%"><stop offset="0%" stop-color="#000706" stop-opacity=".49"/><stop offset="5%" stop-color="#000100" stop-opacity=".3"/><stop offset="100%" stop-color="#000100" stop-opacity=".3"/></linearGradient><linearGradient id="d" x1="18.32%" x2="74.14%" y1="14.92%" y2="64.45%"><stop offset="0%" stop-color="#50e764"/><stop offset="5%" stop-color="#56cc69"/><stop offset="100%" stop-color="#56d26a"/></linearGradient><linearGradient id="e" x1="-7.39%" x2="118.57%" y1="69.5%" y2="60.85%"><stop offset="0%" stop-color="#a6ffc3" stop-opacity=".34"/><stop offset="11%" stop-color="#b4ffcb" stop-opacity=".34"/><stop offset="17%" stop-color="#8af996" stop-opacity=".38"/><stop offset="23%" stop-color="#a8ffbc" stop-opacity=".54"/><stop offset="70%" stop-color="#aaffba" stop-opacity=".54"/><stop offset="76%" stop-color="#1a712f" stop-opacity=".64"/><stop offset="100%" stop-color="#1e7231" stop-opacity=".64"/></linearGradient><linearGradient id="f" x1=".75%" x2="100.04%" y1="57.18%" y2="51.82%"><stop offset="0%" stop-color="#e9f0e9"/><stop offset="100%" stop-color="#e5e3e3"/></linearGradient><linearGradient id="g" x1="62.4%" x2="41.83%" y1="-3.51%" y2="104.32%"><stop offset="0%" stop-color="#fcfdfc" stop-opacity=".5"/><stop offset="10%" stop-color="#fdfdfd" stop-opacity=".61"/><stop offset="20%" stop-color="#fff" stop-opacity=".6"/><stop offset="70%" stop-color="#efeff1" stop-opacity=".64"/><stop offset="80%" stop-color="#fff" stop-opacity=".62"/><stop offset="100%" stop-color="#f2f2f3" stop-opacity=".68"/></linearGradient><linearGradient id="h" x1="-9.22%" x2="81.81%" y1="89.2%" y2="30.56%"><stop offset="0%" stop-color="#c0bebf"/><stop offset="70%" stop-color="#c2c2c2"/><stop offset="100%" stop-color="#bab5b7"/></linearGradient><linearGradient id="i" x1="14.07%" x2="114.21%" y1="19.61%" y2="92.75%"><stop offset="0%" stop-color="#53d172" stop-opacity=".72"/><stop offset="20%" stop-color="#5acf6b" stop-opacity=".93"/><stop offset="80%" stop-color="#55ce67" stop-opacity=".96"/><stop offset="100%" stop-color="#69e085" stop-opacity=".7"/></linearGradient><linearGradient id="j" x1=".78%" x2="98.59%" y1="48.97%" y2="53.51%"><stop offset="0%" stop-color="#0b0b0c" stop-opacity=".26"/><stop offset="5%" stop-opacity=".04"/><stop offset="16%" stop-opacity=".02"/><stop offset="94%" stop-color="#000101" stop-opacity=".01"/><stop offset="100%" stop-color="#060d15" stop-opacity=".1"/></linearGradient><linearGradient id="k" x1="10.49%" x2="104.84%" y1="79.1%" y2="8.49%"><stop offset="0%" stop-color="#e8ebea"/><stop offset="87%" stop-color="#e8ebea"/><stop offset="100%" stop-color="#d8e3e0"/></linearGradient><linearGradient id="l" x1="9.33%" x2="67.38%" y1="78.38%" y2="10.31%"><stop offset="0%" stop-color="#bfc0c1"/><stop offset="100%" stop-color="#bfc6bc"/></linearGradient></defs><path fill="#68e27b" d="M636.085 454.953V645.99h-.708z" opacity=".86"/><path fill="url(#a)" d="M67.641 181.778c6.85 8.373 20.99 22.513 29.363 29.364 3.373 2.76 21.318 15.973 23.703 17.688h1.415c2.91-9.044 6.025-16.192 9.764-23.137 1.52-2.823 5.095-6.798 5.095-11.533-7.323-4.18-13.296-8.273-18.75-12.735-1.285-1.051-2.254-2.487-3.538-3.538-5.23-4.28-11.048-7.753-16.274-12.029-9.674-7.915-27.108-25.35-35.023-35.023-5.425-6.63-10.425-13.606-15.85-20.236-3.077-3.762-7.097-8.198-8.914-14.08 8.1 2.133 15.055 5.66 23.349 5.66-1.146-2.393-2.291-3.022-4.246-4.245-3.824-6.745-8.535-11.808-12.594-16.769-11.073-13.533-32.302-49.359-37.712-65.59C6.08 11.534 2.547 6.731 2.547 1H1.132c0 7.403-.296 13.125 0 18.75.382 7.272 2.441 19.967 3.75 27.382.825 4.678 1.367 9.402 2.193 14.08.825 4.678 2.398 9.317 3.891 13.797 1.99 5.969 3.173 12.205 5.166 18.184 10.889 32.669 29.887 62.158 51.509 88.585z" transform="matrix(1 0 0 -1 119.151 375.292)"/><path fill="url(#b)" d="M373.665 83.874c3.351-2.742 22.537-15.716 22.995-18.467.433-2.598-27.3-33.54-31.061-38.137-3.183-3.89-19.74-24.822-22.57-26.108-3.377-1.535-13.569 8.29-16.84 10.472-11.17 7.446-22.076 14.935-33.892 21.297-6.224 3.351-12.95 5.775-19.174 9.127-5.696 3.067-12.354 4.967-18.467 7.005-18.132 6.044-36.703 10.472-55.543 13.797-6.363 1.123-13.031.723-19.457 1.061-20.497 1.08-40.184.317-60.425-3.254-3.87-.683-8.1-.405-13.514-1.699L88.028 73.12c-3.334 2.8-7.72 4.456-10.613 6.015-2.985 1.607-5.371 4.198-8.349 5.801-15.27 8.223-31.468 14.547-47.9 20.024-3.79 1.263-16.382 3.658-20.166 5.66l7.075 4.953c6.646 1.662 11.318 5.211 16.699 7.005 18.135 6.045 39.869 15.526 58.938 18.891 10.157 1.793 20.267 3.868 30.425 5.66 7.483 1.321 15.49 1.3 23.066 1.699 3.808.2 7.513 1.215 11.32 1.415 9.95.524 20.477.524 30.425 0 3.582-.188 7.031-1.226 10.613-1.415 3.058-.16 6.14.16 9.198 0 5.267-.277 10.736-1.561 15.92-2.476 7.686-1.357 15.603-1.547 23.279-2.901 16.557-2.922 32.687-8.444 48.537-13.727 24.897-8.299 66.891-29.257 87.17-45.849z" transform="matrix(1 0 0 -1 232.49 162.27)"/><path fill="url(#c)" d="M5.953 197.698L6.66 4.538 1 1l3.538 4.245h.707v.708z" transform="matrix(1 0 0 -1 630.84 651.236)"/><path fill="url(#d)" d="M188.245 679.735c0-20.789 3.184-41.746 9.198-59.788.695-2.085.648-4.348 1.345-6.438 2.097-6.292 7.204-15.872 8.56-22.925-2.385-1.715-20.329-14.929-23.702-17.689-8.373-6.85-22.513-20.99-29.363-29.363-21.623-26.427-40.62-55.916-51.51-88.585-1.993-5.979-3.175-12.215-5.165-18.184-1.493-4.48-3.066-9.12-3.891-13.797-.826-4.678-1.368-9.402-2.194-14.08-1.308-7.415-3.367-20.11-3.75-27.382-.296-5.625 0-11.347 0-18.75 0-10.529.249-19.219.708-27.948.135-2.574 2.617-19.074 3.184-22.288.468-2.65 1.655-5.133 2.123-7.783 2.016-11.424 5.76-22.094 9.41-33.042 10.71-32.13 28.336-60.813 49.67-86.887 4.19-5.122 13.759-16.838 19.811-20.873l9.906-9.198c1.96-2.94 17.745-14.73 21.934-16.981 3.71-1.993 6.196-5.214 9.127-6.792 5.13-2.762 9.827-6.38 14.93-9.128 2.76-1.486 24.924-12.648 26.462-13.16 2.858-.953 5.774-1.736 8.632-2.689 3.21-1.07 6.106-3.026 9.34-4.104 2.417-.806 5.02-.966 7.428-1.769 1.713-.57 3.312-1.48 5.024-2.051 4.384-1.462 9.253-2.383 13.797-3.184 3.572-.63 7.004-2.194 10.613-2.83 5.441-.96 10.905-1.8 16.345-2.76 19.47-3.436 61.578-2.618 81.226.849 3.869.683 7.63 2.012 11.462 2.689 12.276 2.166 30.23 6.27 42.453 12.382 9.354 2.076 52.74 23.299 55.967 29.292 1.74 3.232.637 8.864.637 13.868V283.51h85.613v-1.415l-.707-191.038-3.538-4.245c-4.588-4.233-12.183-8.65-16.486-12.17-29.354-24.017-68.914-43.255-104.717-55.189-18.041-6.014-36.43-10.84-55.188-14.15-4.605-.813-9.344-.817-13.94-1.628-6.818-1.204-13.923-2.11-20.872-2.477-8.437-.444-17.021 0-25.472 0-8.45 0-17.034-.444-25.471 0-5.042.266-10.114 1.281-15.142 1.84-45.804 5.09-89.825 19.195-130.26 40.967-8.02 4.319-26.97 14.863-33.537 20.236-7.554 6.18-15.865 11.437-23.42 17.618-8.27 6.767-15.785 14.459-24.056 21.226-3.328 2.723-6.157 6.267-8.845 9.552-4.854 5.933-10.71 11.048-15.566 16.981-5.972 7.3-11.418 15.37-17.193 22.43-10.364 12.667-33.597 52.395-38.632 67.5-1.604 4.81-4.057 9.34-5.66 14.15-5.213 15.639-11.687 31.316-14.576 47.689-.97 5.5-2.426 10.915-3.396 16.415-.613 3.47-.239 7.012-.85 10.472-.986 5.59-2.882 10.901-3.183 16.627-.311 5.907-1.105 11.784-1.415 17.689-.604 11.467-.604 31.693 0 43.16.169 3.216.99 13.391 1.486 16.203.332 1.882 1.23 3.67 1.556 5.519.987 5.59 1.205 11.31 2.194 16.91 4.783 27.108 13.704 52.858 22.358 78.821 3.81 11.428 12.753 27.12 18.608 37.995 11.224 20.844 25.93 40.026 40.826 58.231 1.595 1.95 4.065 3.003 5.66 4.953 2.239 2.736 4.13 5.755 6.368 8.49 2.993 3.66 20.545 19.235 21.227 20.874h2.122c2.432 3.011 11.368 9.999 12.736 12.735 5.161 5.973 47.382 31.11 50.236 32.548z" transform="matrix(1 0 0 -1 32.51 737.046)"/><path fill="url(#e)" d="M3.123 193.453l87.028-.708L89.443 1v191.745H3.83V57.604L1 59.019h2.123z" transform="matrix(1 0 0 -1 546.642 646.283)"/><path fill="url(#f)" d="M121.283 586.142l-7.075-4.953c3.784-2.002 16.375-4.397 20.165-5.66 16.432-5.478 32.63-11.802 47.9-20.024 2.978-1.604 5.365-4.195 8.35-5.802 2.893-1.558 7.279-3.215 10.613-6.014l17.689-14.151c2.416-3.625 5.793-5.44 8.136-7.783 3.498-3.498 6.863-7.416 10.684-10.543 2.916-2.386 32.622-7.336 39.27-9.552 6.325-2.108 12.919-3.41 19.244-5.518 23.504-7.835 47.069-16.963 68.916-28.727 25.358-13.655 68.014-38.173 81.863-63.891 12.445-23.112 4.314-35.227 23.773-59.01 5.527-6.755 16.51-15.638 24.128-19.74 4.928-2.654 9.151-6.615 14.08-9.27 11.741-6.322 24.203-9.848 37.358-12.17 2.241-.395 4.352-1.516 6.58-1.91 5.74-1.012 11.847-.98 19.034-2.547l.707-.707c0-14.089-3.136-27.143-11.32-37.146-2.887-3.528-10.767-7.702-14.86-9.906-27.436-14.774-48.94-18.986-80.306-17.335-8.673.457-48.392 8.082-59.929 10.118-9.869 1.741-34.039 7.317-42.665 6.863-40.05-2.108-44.47-43.617-34.175-74.505 3.662-10.985 10.463-20.292 16.84-29.858 3.11-4.665 6.358-9.815 9.906-14.151 5.502-6.725 26.353-28.252 32.9-33.608 3.704-3.03 16.206-13.024 18.75-17.69l-28.301-4.244 48.82-31.133 2.83-1.415c0-5.004 1.104-10.636-.636-13.868C427.325 24.3 383.938 3.076 374.585 1l-10.613 27.594 19.103-3.537c-1.591 6.367-6.115 12.317-8.702 17.122-7.638 14.185-27.362 39.947-39.765 50.095-5.066 4.145-10.605 8.517-15.212 14.858l.708.708 19.104-1.415c-1.841 7.362-27.245 35.633-33.467 70.896-1.994 11.3-2.76 22.988-1.486 34.457 3.325 29.926 16.152 51.087 47.971 54.623 8.454.94 17.276.847 25.684-.637 10.984-1.938 21.78-4.925 32.76-6.863 21.326-3.764 42.178-9.56 63.75-11.958 15.186-1.687 37.033 1.295 50.66 8.632 4.127 2.223 8.186 4.572 12.311 6.793 2.481 1.336 7.716 3.87 8.916 6.51.603 1.326-.16 2.654-1.274 3.396-8.724 5.815-15.146.908-24.34.424-4.453-.234-8.983 0-13.443 0-25.685 0-51.55 4.505-75.212 14.646-22.213 9.52-34.184 18.842-53.986 29.505-51.585 27.776-95.807 59.859-159.127 59.859V376l24.764-9.198v-2.123c-25.351-6.337-49.889-14.477-69.552-30.566-3.884-3.177-7.58-6.587-11.462-9.764-3.586-2.934-12.682-11.212-15.213-16.274 10.618 0 24.937 9.837 34.67 5.66-12.385-18.577-24.326-36.54-31.132-56.957-1.189-3.567-3.377-7.314-4.245-12.382 1.788.447 55.483 32.214 62.688 28.939 1.052-.478 1.719-1.779 1.982-2.83.92-3.68 2.63-19.386 3.679-25.33 1.158-6.563 4.654-14.27 5.943-21.298 7.628 7.707 34.121 30.687 44.576 32.548-1.02-4.077-12.678-16.4-15.354-19.67-7.816-9.553-17.207-21.949-23.066-32.83-2.752-5.11-7.676-15.07-13.231-18.963-7.347 7.313-15.94 55.229-18.397 60.142-2.536-1.777-16.61-7.829-19.81-9.552-9.044-4.87-16.555-11.615-24.411-18.043-3.297-2.697-6.184-6.183-9.198-9.198-18.41-18.408-35.014-38.543-47.406-61.556-1.42-2.637-7.748-15.992-8.844-18.397 4.91 3.855 10.27 5.991 14.363 9.34 1.853 1.516 3.696 4.317 5.873 5.307 1.618.735 3.224.212 6.65.212-9.267-19.95-19.37-42.435-22.995-62.972-.96-5.437-2.196-13.82-3.891-20.519-6.053 4.035-15.62 15.75-19.812 20.873-21.333 26.074-38.96 54.758-49.67 86.887-3.65 10.949-7.394 21.619-9.41 33.042-.467 2.65-1.655 5.133-2.122 7.783-.568 3.214-3.049 19.714-3.184 22.288-.46 8.73-.708 17.42-.708 27.948h1.415c0 5.73 3.535 10.534 4.882 14.576 5.41 16.23 26.64 52.056 37.712 65.59 4.06 4.96 8.77 10.023 12.595 16.768 1.954 1.223 3.099 1.852 4.245 4.245-8.293 0-15.249-3.527-23.349-5.66 1.817 5.882 5.837 10.318 8.915 14.08 5.425 6.63 10.425 13.606 15.85 20.236 7.914 9.674 25.348 27.108 35.023 35.024 5.225 4.275 11.043 7.749 16.273 12.028 1.285 1.05 2.254 2.487 3.538 3.538 5.455 4.462 11.427 8.556 18.75 12.736 0 4.734-3.574 8.71-5.094 11.533-3.74 6.944-6.854 14.092-9.764 23.136h-1.416c-1.357 7.053-6.464 16.633-8.56 22.925-.698 2.09-.65 4.354-1.345 6.439-6.014 18.041-9.198 38.998-9.198 59.787l-1.415-.707.707 8.49c6.775-2.68 14.617-1.377 20.519 2.83zm2.123-31.84c0-14.416 18.082-55.159 26.674-65.66.927-1.133 1.678-3.006 3.75-4.387l-4.245 25.471 14.15-5.66c-1.395 2.805-14.858 28.741-14.858 30.425l35.378-15.566c-4.376 3.812-7.609 7.479-11.18 10.4-11.025 9.021-34.708 22.403-49.67 24.977zm177.948-116.745c-3.851 0-11.798.292-16.628-1.415 1.37-6.353 5.344-11.554 8.066-15.637 13.815-20.722 33.078-40.743 57.312-48.821 3.538-1.18 7.051-3.18 11.745-4.175 20.452-5.56 27.23-5.66 48.82-5.66l.708.708c-3.573 15.718-22.871 41.58-34.316 50.943-2.36 1.932-7.38 4.796-10.26 7.075-4.647 2.325-8.077 4.65-11.532 6.51-16.047 8.64-36.052 10.472-53.915 10.472z" transform="matrix(1 0 0 -1 119.283 632.84)"/><path fill="url(#g)" d="M5.953 59.726c2.88-2.28 7.898-5.143 10.26-7.075 11.444-9.364 30.742-35.225 34.315-50.943L49.821 1C28.23 1 21.45 1.099 1 6.66c5.672-1.063 9.769-2.577 14.01-3.325C25.797 1.43 36.753 1.708 49.112 1.708c-1.325 12.77-23.402 41.885-33.608 50.235-1.944 1.591-7.871 5.262-9.552 7.783z" transform="matrix(1 0 0 -1 480.132 271.99)"/><path fill="url(#h)" d="M1 71.047c14.962-2.574 38.644-15.955 49.67-24.976 3.57-2.922 6.803-6.589 11.18-10.401L26.471 51.236c0-1.683 13.462-27.62 14.858-30.425l-14.15 5.66L31.424 1c-2.072 1.381-2.824 3.254-3.75 4.387C19.082 15.889 1 56.632 1 71.047z" transform="matrix(1 0 0 -1 241.689 149.585)"/><path fill="url(#i)" d="M10.906 34.962h8.49V1.708L18.69 1h-7.076v24.057L1 20.81c0 5.547 1.829 6.732 6.368 9.198v2.123l3.538 2.83z" transform="matrix(1 0 0 -1 451.123 250.057)"/><path fill="url(#j)" d="M71.542 65.542c3.456-1.86 6.885-4.185 11.533-6.51 1.681-2.52 7.608-6.191 9.552-7.782 10.207-8.351 32.283-37.465 33.609-50.236-12.36 0-23.316-.276-34.104 1.627-4.24.749-8.337 2.263-14.01 3.326-4.693.994-8.206 2.995-11.745 4.174-24.234 8.078-43.497 28.1-57.31 48.821C6.343 63.046 2.37 68.246 1 74.6c4.83 1.707 12.776 1.415 16.627 1.415 17.864 0 37.869-1.831 53.915-10.472zm-12.523-9.34l-3.538-2.83V51.25c-4.54-2.467-6.368-3.651-6.368-9.198l10.613 4.245V22.24h7.076l.707.708v33.255h-8.49z" transform="matrix(1 0 0 -1 403.01 271.297)"/><path fill="url(#k)" d="M30.01 67.51c0-6.702-1.548-12.19-2.406-17.052-1.297-7.35-6.32-43.622-4.67-49.458C18.745 3.251 2.959 15.042 1 17.981c1.612 8.966 21.116 46.98 29.01 49.528z" transform="matrix(1 0 0 -1 214.094 600.292)"/><path fill="url(#l)" d="M134.019 394.829c63.32 0 107.543-32.082 159.127-59.859 19.802-10.662 31.773-19.985 53.986-29.504 23.663-10.142 49.528-14.647 75.212-14.647 4.46 0 8.99-.234 13.444 0 9.193.484 15.616 5.392 24.34-.424 1.112-.742 1.876-2.07 1.273-3.396-1.2-2.64-6.435-5.174-8.915-6.51-4.125-2.221-8.185-4.57-12.311-6.792-13.627-7.338-35.474-10.32-50.66-8.632-21.573 2.397-42.424 8.194-63.75 11.957-10.982 1.938-21.777 4.925-32.76 6.864-8.408 1.483-17.23 1.576-25.684.636-31.82-3.535-44.647-24.696-47.972-54.622-1.274-11.47-.508-23.158 1.486-34.458 6.223-35.263 31.626-63.534 33.467-70.896l-19.104 1.415-.707-.708c4.606-6.34 10.145-10.713 15.212-14.858 12.402-10.148 32.126-35.91 39.764-50.094 2.587-4.806 7.111-10.756 8.703-17.123l-19.104 3.538 10.613-27.595C277.456 13.01 259.502 8.906 247.226 6.74c-3.833-.676-7.593-2.006-11.462-2.688-19.648-3.468-61.756-4.285-81.226-.85-5.44.96-10.904 1.8-16.345 2.76-3.61.637-7.04 2.2-10.613 2.83-4.544.802-9.413 1.723-13.797 3.184-1.712.57-3.311 1.481-5.024 2.052-2.408.803-5.011.963-7.429 1.769-3.233 1.077-6.128 3.033-9.34 4.104-2.857.952-5.773 1.735-8.632 2.688-1.537.513-23.702 11.675-26.462 13.16-5.102 2.748-9.8 6.366-14.929 9.128-2.93 1.578-5.417 4.8-9.127 6.793-1.65 5.836 3.372 42.107 4.67 49.457.858 4.863 2.405 10.35 2.405 17.052-7.894-2.549-27.397-40.562-29.01-49.528L1 77.848c1.695 6.698 2.932 15.08 3.892 20.519 3.624 20.537 13.727 43.02 22.995 62.971-3.426 0-5.033.524-6.651-.212-2.177-.99-4.02-3.79-5.873-5.307-4.093-3.349-9.452-5.484-14.363-9.34 1.096 2.405 7.425 15.76 8.844 18.397 12.392 23.013 28.997 43.148 47.406 61.557 3.015 3.014 5.9 6.5 9.198 9.198 7.856 6.428 15.367 13.173 24.41 18.042 3.2 1.723 17.276 7.775 19.812 9.552 2.456-4.913 11.049-52.828 18.396-60.141 5.556 3.892 10.48 13.852 13.231 18.962 5.86 10.882 15.25 23.278 23.066 32.83 2.676 3.27 14.335 15.594 15.354 19.67-10.454-1.86-36.948-24.84-44.575-32.547-1.29 7.027-4.786 14.735-5.944 21.297-1.049 5.945-2.759 21.65-3.68 25.33-.262 1.051-.929 2.352-1.98 2.83-7.206 3.276-60.9-28.491-62.689-28.938.869 5.067 3.056 8.815 4.245 12.382 6.806 20.417 18.747 38.38 31.132 56.957-9.732 4.176-24.052-5.66-34.67-5.66 2.532 5.062 11.627 13.34 15.213 16.273 3.883 3.178 7.578 6.587 11.462 9.765 19.664 16.088 44.201 24.228 69.552 30.566v2.122l-24.764 9.198z" transform="matrix(1 0 0 -1 204.189 650.961)"/></svg>